<?xml version="1.0" encoding="UTF-8" standalone="no"?>
<svg
   width="8576"
   height="10576"
   viewBox="0 0 8576 10576"
   version="1.1"
   id="svg121"
   inkscape:version="1.3 (0e150ed6c4, 2023-07-21)"
   sodipodi:docname="7SP2MID2F.svg"
   xmlns:inkscape="http://www.inkscape.org/namespaces/inkscape"
   xmlns:sodipodi="http://sodipodi.sourceforge.net/DTD/sodipodi-0.dtd"
   xmlns:xlink="http://www.w3.org/1999/xlink"
   xmlns="http://www.w3.org/2000/svg"
   xmlns:svg="http://www.w3.org/2000/svg">
  <sodipodi:namedview
     id="namedview1"
     pagecolor="#ffffff"
     bordercolor="#000000"
     borderopacity="0.25"
     inkscape:showpageshadow="2"
     inkscape:pageopacity="0.0"
     inkscape:pagecheckerboard="0"
     inkscape:deskcolor="#d1d1d1"
     inkscape:zoom="0.48750832"
     inkscape:cx="5486.0603"
     inkscape:cy="2392.7797"
     inkscape:window-width="2560"
     inkscape:window-height="1377"
     inkscape:window-x="-8"
     inkscape:window-y="-8"
     inkscape:window-maximized="1"
     inkscape:current-layer="layer2" />
  <defs
     id="defs118" />
  <g
     inkscape:label="Layer 1"
     inkscape:groupmode="layer"
     id="layer1"
     sodipodi:insensitive="true">
    <image
       width="8576"
       height="10576"
       preserveAspectRatio="none"
       style="image-rendering:optimizeSpeed"
       xlink:href="..%5C..%5C..%5C290623%5Coctober%5CSP2%5C7SP2MID2F.tif"
       id="image145"
       x="0"
       y="0" />
  </g>
  <g
     inkscape:groupmode="layer"
     id="layer2"
     inkscape:label="Editable">
    <ellipse
       style="fill:none;stroke:#000000;stroke-width:2.5"
       id="path1"
       cx="6706.2646"
       cy="2015.2543"
       rx="159.09903"
       ry="157.49196" />
    <ellipse
       style="fill:none;stroke:#000000;stroke-width:2.5"
       id="path2"
       cx="7369.981"
       cy="2471.6597"
       rx="96.423653"
       ry="102.8519" />
    <ellipse
       style="fill:none;stroke:#1200d8;stroke-width:2.5;stroke-opacity:1"
       id="path3"
       cx="5854.0107"
       cy="287.53702"
       rx="15.794287"
       ry="17.819195" />
    <ellipse
       style="fill:none;stroke:#1200d8;stroke-width:2.5;stroke-dasharray:none;stroke-opacity:1"
       id="path4"
       cx="5847.126"
       cy="877.8313"
       rx="14.667606"
       ry="15.646632" />
    <rect
       style="fill:none;stroke:#000000;stroke-width:2.5"
       id="rect4"
       width="635.82129"
       height="287.53702"
       x="5770.1797"
       y="1297.5614" />
    <rect
       style="fill:none;stroke:#000000;stroke-width:2.5"
       id="rect5"
       width="443.04999"
       height="264.85803"
       x="6082.0156"
       y="581.55377" />
    <ellipse
       style="fill:none;stroke:#000000;stroke-width:2.5"
       id="path5"
       cx="6243.1982"
       cy="1161.4875"
       rx="46.167915"
       ry="43.738026" />
    <ellipse
       style="fill:none;stroke:#000000;stroke-width:2.5"
       id="path6"
       cx="6707.3071"
       cy="2333.9097"
       rx="89.095978"
       ry="113.79986" />
    <ellipse
       style="fill:none;stroke:#000000;stroke-width:2.5"
       id="path7"
       cx="6838.9263"
       cy="2189.3311"
       rx="33.613483"
       ry="59.937294" />
    <ellipse
       style="fill:none;stroke:#000000;stroke-width:2.5"
       id="path8"
       cx="6992.0093"
       cy="3381.1924"
       rx="80.591362"
       ry="89.500961" />
    <ellipse
       style="fill:none;stroke:#000000;stroke-width:2.5"
       id="path9"
       cx="6770.4844"
       cy="3284.4016"
       rx="54.267551"
       ry="50.217731" />
    <rect
       style="fill:none;stroke:#000000;stroke-width:2.5"
       id="rect9"
       width="346.66434"
       height="420.37103"
       x="6555.8442"
       y="858.56122" />
    <rect
       style="fill:none;stroke:#000000;stroke-width:2.5"
       id="rect10"
       width="323.4505"
       height="290.09015"
       x="7712.0464"
       y="4841.6045" />
    <ellipse
       style="fill:none;stroke:#000000;stroke-width:2.5"
       id="path10"
       cx="7771.001"
       cy="5299.2017"
       rx="31.768566"
       ry="27.669395" />
    <ellipse
       style="fill:none;stroke:#1200d8;stroke-width:1.97303;stroke-opacity:1"
       id="path11"
       cx="7222.7373"
       cy="6270.8774"
       rx="21.784122"
       ry="14.503379" />
    <ellipse
       style="fill:none;stroke:#000000;stroke-width:2.5"
       id="path12"
       cx="7220.6875"
       cy="6646.2915"
       rx="47.140453"
       ry="26.132208" />
    <ellipse
       style="fill:none;stroke:#000000;stroke-width:2.5"
       id="path13"
       cx="6509.9941"
       cy="7515.8276"
       rx="48.677639"
       ry="53.289207" />
    <ellipse
       style="fill:none;stroke:#000000;stroke-width:2.5"
       id="path14"
       cx="6278.3906"
       cy="8137.3643"
       rx="41.504093"
       ry="36.380131" />
    <ellipse
       style="fill:none;stroke:#000000;stroke-width:2.5"
       id="path15"
       cx="6328.6055"
       cy="8449.9258"
       rx="44.578472"
       ry="49.702435" />
    <ellipse
       style="fill:none;stroke:#000000;stroke-width:2.5"
       id="path16"
       cx="6663.7129"
       cy="8052.8188"
       rx="38.429718"
       ry="50.214828" />
    <ellipse
       style="fill:none;stroke:#1200d8;stroke-width:2.5;stroke-opacity:1"
       id="path17"
       cx="6938.3574"
       cy="8543.6943"
       rx="27.157"
       ry="17.421471" />
    <ellipse
       style="fill:none;stroke:#000000;stroke-width:2.5"
       id="path18"
       cx="4925.1523"
       cy="9684.8008"
       rx="22.545433"
       ry="29.206585" />
    <ellipse
       style="fill:none;stroke:#000000;stroke-width:2.5"
       id="path19"
       cx="4603.3677"
       cy="9417.8428"
       rx="15.371886"
       ry="22.545433" />
    <ellipse
       style="fill:none;stroke:#000000;stroke-width:2.5"
       id="path20"
       cx="4724.293"
       cy="9065.3135"
       rx="127.07426"
       ry="125.02467" />
    <ellipse
       style="fill:none;stroke:#000000;stroke-width:2.5"
       id="path21"
       cx="4558.2764"
       cy="9025.8594"
       rx="30.743773"
       ry="36.380131" />
    <rect
       style="fill:none;stroke:#000000;stroke-width:2.5"
       id="rect22"
       width="222.51515"
       height="224.32129"
       x="4128.0894"
       y="9851.3525" />
    <ellipse
       style="fill:none;stroke:#000000;stroke-width:2.5"
       id="path23"
       cx="4491.3359"
       cy="8494.3047"
       rx="35.567356"
       ry="33.652191" />
    <ellipse
       style="fill:none;stroke:#000000;stroke-width:2.5"
       id="path24"
       cx="4085.3213"
       cy="9033.2881"
       rx="54.171818"
       ry="57.728554" />
    <rect
       style="fill:none;stroke:#000000;stroke-width:2.5"
       id="rect24"
       width="546.0957"
       height="259.3681"
       x="3999.9597"
       y="8656.5469" />
    <ellipse
       style="fill:none;stroke:#000000;stroke-width:2.5"
       id="path25"
       cx="4118.4263"
       cy="7283.3735"
       rx="38.029713"
       ry="33.105" />
    <ellipse
       style="fill:none;stroke:#000000;stroke-width:2.5"
       id="path26"
       cx="4552.6216"
       cy="6904.9917"
       rx="53.62463"
       ry="48.152729" />
    <ellipse
       style="fill:none;stroke:#000000;stroke-width:2.5"
       id="path27"
       cx="4157.0034"
       cy="5150.4268"
       rx="36.114548"
       ry="30.916241" />
    <ellipse
       style="fill:none;stroke:#000000;stroke-width:2.5"
       id="path28"
       cx="4475.7412"
       cy="4549.8857"
       rx="32.01062"
       ry="25.717934" />
    <ellipse
       style="fill:none;stroke:#000000;stroke-width:2.5"
       id="path29"
       cx="4514.0449"
       cy="4389.8325"
       rx="29.27467"
       ry="23.255579" />
    <ellipse
       style="fill:none;stroke:#1200d8;stroke-width:2.5;stroke-opacity:1"
       id="path30"
       cx="5081.0811"
       cy="3408.8958"
       rx="16.404696"
       ry="19.685635" />
    <ellipse
       style="fill:none;stroke:#000000;stroke-width:2.5"
       id="path31"
       cx="5178.1421"
       cy="3902.4038"
       rx="53.862083"
       ry="41.285152" />
    <ellipse
       style="fill:none;stroke:#000000;stroke-width:2.5"
       id="path32"
       cx="5340.002"
       cy="5254.6973"
       rx="19.412224"
       ry="20.505869" />
    <ellipse
       style="fill:none;stroke:#000000;stroke-width:2.5"
       id="path33"
       cx="4828.7222"
       cy="5363.2417"
       rx="33.629627"
       ry="33.903038" />
    <ellipse
       style="fill:none;stroke:#000000;stroke-width:2.5"
       id="path34"
       cx="4871.9214"
       cy="6332.7598"
       rx="20.505869"
       ry="29.528452" />
    <ellipse
       style="fill:none;stroke:#000000;stroke-width:2.5"
       id="path35"
       ry="38.277622"
       rx="47.847031"
       cy="6795.9185"
       cx="5063.8564" />
    <path
       style="fill:none;stroke:#000000;stroke-width:2.5"
       id="path36"
       sodipodi:type="arc"
       sodipodi:cx="4798.647"
       sodipodi:cy="7349.3037"
       sodipodi:rx="35.270096"
       sodipodi:ry="34.44986"
       sodipodi:start="0"
       sodipodi:end="6.2637073"
       sodipodi:open="true"
       sodipodi:arc-type="arc"
       d="m 4833.9171,7349.3037 a 35.270096,34.44986 0 0 1 -35.0984,34.4495 35.270096,34.44986 0 0 1 -35.4402,-34.114 35.270096,34.44986 0 0 1 34.7532,-34.7817 35.270096,34.44986 0 0 1 35.7787,33.7752" />
    <path
       style="fill:none;stroke:#000000;stroke-width:2.5"
       id="path37"
       sodipodi:type="arc"
       sodipodi:cx="4985.6602"
       sodipodi:cy="7517.9985"
       sodipodi:rx="41.831974"
       sodipodi:ry="39.64468"
       sodipodi:start="0"
       sodipodi:end="6.2637073"
       sodipodi:open="true"
       sodipodi:arc-type="arc"
       d="m 5027.4921,7517.9985 a 41.831974,39.64468 0 0 1 -41.6282,39.6442 41.831974,39.64468 0 0 1 -42.0337,-39.2581 41.831974,39.64468 0 0 1 41.2189,-40.0265 41.831974,39.64468 0 0 1 42.4351,38.8683" />
    <path
       style="fill:none;stroke:#000000;stroke-width:2.5"
       id="path38"
       sodipodi:type="arc"
       sodipodi:cx="4847.314"
       sodipodi:cy="8038.0278"
       sodipodi:rx="42.925621"
       sodipodi:ry="43.472443"
       sodipodi:start="0"
       sodipodi:end="6.2637073"
       sodipodi:open="true"
       sodipodi:arc-type="arc"
       d="m 4890.2396,8038.0278 a 42.925621,43.472443 0 0 1 -42.7166,43.472 42.925621,43.472443 0 0 1 -43.1326,-43.0486 42.925621,43.472443 0 0 1 42.2965,-43.8912 42.925621,43.472443 0 0 1 43.5445,42.6211" />
    <path
       style="fill:none;stroke:#000000;stroke-width:2.5"
       id="path39"
       sodipodi:type="arc"
       sodipodi:cx="5189.3521"
       sodipodi:cy="8318.2744"
       sodipodi:rx="56.869614"
       sodipodi:ry="54.68232"
       sodipodi:start="0"
       sodipodi:end="6.2637073"
       sodipodi:open="true"
       sodipodi:arc-type="arc"
       d="m 5246.2217,8318.2744 a 56.869614,54.68232 0 0 1 -56.5927,54.6817 56.869614,54.68232 0 0 1 -57.1439,-54.1491 56.869614,54.68232 0 0 1 56.0362,-55.2091 56.869614,54.68232 0 0 1 57.6896,53.6115" />
    <path
       style="fill:none;stroke:#000000;stroke-width:2.5"
       id="path40"
       sodipodi:type="arc"
       sodipodi:cx="5463.8574"
       sodipodi:cy="7916.6328"
       sodipodi:rx="40.464916"
       sodipodi:ry="39.097858"
       sodipodi:start="0"
       sodipodi:end="6.2637073"
       sodipodi:open="true"
       sodipodi:arc-type="arc"
       d="m 5504.3223,7916.6328 a 40.464916,39.097858 0 0 1 -40.2678,39.0974 40.464916,39.097858 0 0 1 -40.6601,-38.7166 40.464916,39.097858 0 0 1 39.8719,-39.4745 40.464916,39.097858 0 0 1 41.0484,38.3322" />
    <path
       style="fill:none;stroke:#000000;stroke-width:2.5"
       id="path41"
       sodipodi:type="arc"
       sodipodi:cx="5701.7251"
       sodipodi:cy="6959.9653"
       sodipodi:rx="76.008423"
       sodipodi:ry="73.274307"
       sodipodi:start="0"
       sodipodi:end="6.2637073"
       sodipodi:open="true"
       sodipodi:arc-type="arc"
       d="m 5777.7335,6959.9653 a 76.008423,73.274307 0 0 1 -75.6383,73.2735 76.008423,73.274307 0 0 1 -76.3749,-72.5599 76.008423,73.274307 0 0 1 74.8945,-73.9801 76.008423,73.274307 0 0 1 77.1043,71.8394" />
    <rect
       style="fill:none;stroke:#000000;stroke-width:2.5"
       id="rect41"
       width="549.0105"
       height="308.95511"
       x="4918.6748"
       y="6882.3169" />
    <path
       style="fill:none;stroke:#000000;stroke-width:2.5"
       id="path42"
       sodipodi:type="arc"
       sodipodi:cx="6730.8467"
       sodipodi:cy="6916.4932"
       sodipodi:rx="30.075275"
       sodipodi:ry="24.333632"
       sodipodi:start="0"
       sodipodi:end="6.2637073"
       sodipodi:open="true"
       sodipodi:arc-type="arc"
       d="m 6760.922,6916.4932 a 30.075275,24.333632 0 0 1 -29.9289,24.3333 30.075275,24.333632 0 0 1 -30.2203,-24.0964 30.075275,24.333632 0 0 1 29.6345,-24.568 30.075275,24.333632 0 0 1 30.509,23.8571" />
    <path
       style="fill:none;stroke:#000000;stroke-width:2.5"
       id="path43"
       sodipodi:type="arc"
       sodipodi:cx="6609.7256"
       sodipodi:cy="6408.4946"
       sodipodi:rx="27.614571"
       sodipodi:ry="22.146339"
       sodipodi:start="0"
       sodipodi:end="6.2637073"
       sodipodi:open="true"
       sodipodi:arc-type="arc"
       d="m 6637.3402,6408.4946 a 27.614571,22.146339 0 0 1 -27.4801,22.1461 27.614571,22.146339 0 0 1 -27.7478,-21.9304 27.614571,22.146339 0 0 1 27.2099,-22.3596 27.614571,22.146339 0 0 1 28.0127,21.7126" />
    <path
       style="fill:none;stroke:#000000;stroke-width:2.5"
       id="path44"
       sodipodi:type="arc"
       sodipodi:cx="6592.2271"
       sodipodi:cy="3692.697"
       sodipodi:rx="44.019268"
       sodipodi:ry="38.824448"
       sodipodi:start="0"
       sodipodi:end="6.2637073"
       sodipodi:open="true"
       sodipodi:arc-type="arc"
       d="m 6636.2463,3692.697 a 44.019268,38.824448 0 0 1 -43.8049,38.824 44.019268,38.824448 0 0 1 -44.2315,-38.4459 44.019268,38.824448 0 0 1 43.3741,-39.1984 44.019268,38.824448 0 0 1 44.654,38.0641" />
    <path
       style="fill:none;stroke:#000000;stroke-width:2.5"
       id="path45"
       sodipodi:type="arc"
       sodipodi:cx="6037.2012"
       sodipodi:cy="2241.4282"
       sodipodi:rx="24.880455"
       sodipodi:ry="22.966574"
       sodipodi:start="0"
       sodipodi:end="6.2637073"
       sodipodi:open="true"
       sodipodi:arc-type="arc"
       d="m 6062.0816,2241.4282 a 24.880455,22.966574 0 0 1 -24.7593,22.9663 24.880455,22.966574 0 0 1 -25.0004,-22.7426 24.880455,22.966574 0 0 1 24.5158,-23.1878 24.880455,22.966574 0 0 1 25.2392,22.5168" />
    <path
       style="fill:none;stroke:#000000;stroke-width:2.5"
       id="path46"
       sodipodi:type="arc"
       sodipodi:cx="5919.6343"
       sodipodi:cy="3094.7458"
       sodipodi:rx="69.173134"
       sodipodi:ry="62.611256"
       sodipodi:start="0"
       sodipodi:end="6.2637073"
       sodipodi:open="true"
       sodipodi:arc-type="arc"
       d="m 5988.8074,3094.7458 a 69.173134,62.611256 0 0 1 -68.8363,62.6106 69.173134,62.611256 0 0 1 -69.5067,-62.0008 69.173134,62.611256 0 0 1 68.1594,-63.2143 69.173134,62.611256 0 0 1 70.1705,61.3851" />
    <path
       style="fill:none;stroke:#000000;stroke-width:2.5"
       id="path47"
       sodipodi:type="arc"
       sodipodi:cx="6048.6846"
       sodipodi:cy="4058.7952"
       sodipodi:rx="18.8654"
       sodipodi:ry="24.880455"
       sodipodi:start="0"
       sodipodi:end="6.2637073"
       sodipodi:open="true"
       sodipodi:arc-type="arc"
       d="m 6067.55,4058.7952 a 18.8654,24.880455 0 0 1 -18.7736,24.8801 18.8654,24.880455 0 0 1 -18.9563,-24.6378 18.8654,24.880455 0 0 1 18.5889,-25.1201 18.8654,24.880455 0 0 1 19.1374,24.3932" />
    <path
       style="fill:none;stroke:#000000;stroke-width:2.5"
       id="path48"
       sodipodi:type="arc"
       sodipodi:cx="6033.9204"
       sodipodi:cy="4649.6377"
       sodipodi:rx="44.56609"
       sodipodi:ry="46.479973"
       sodipodi:start="0"
       sodipodi:end="6.2637073"
       sodipodi:open="true"
       sodipodi:arc-type="arc"
       d="m 6078.4865,4649.6377 a 44.56609,46.479973 0 0 1 -44.3491,46.4794 44.56609,46.479973 0 0 1 -44.781,-46.0267 44.56609,46.479973 0 0 1 43.913,-46.9277 44.56609,46.479973 0 0 1 45.2086,45.5697" />
    <path
       style="fill:none;stroke:#000000;stroke-width:2.5"
       id="path49"
       sodipodi:type="arc"
       sodipodi:cx="6348.8906"
       sodipodi:cy="4616.0078"
       sodipodi:rx="43.472443"
       sodipodi:ry="39.64468"
       sodipodi:start="0"
       sodipodi:end="6.2637073"
       sodipodi:open="true"
       sodipodi:arc-type="arc"
       d="m 6392.3631,4616.0078 a 43.472443,39.64468 0 0 1 -43.2608,39.6442 43.472443,39.64468 0 0 1 -43.6821,-39.2581 43.472443,39.64468 0 0 1 42.8354,-40.0265 43.472443,39.64468 0 0 1 44.0992,38.8683" />
    <path
       style="fill:none;stroke:#000000;stroke-width:2.5"
       id="path50"
       sodipodi:type="arc"
       sodipodi:cx="6410.9551"
       sodipodi:cy="4927.9707"
       sodipodi:rx="43.199032"
       sodipodi:ry="42.105385"
       sodipodi:start="0"
       sodipodi:end="6.2637073"
       sodipodi:open="true"
       sodipodi:arc-type="arc"
       d="m 6454.1541,4927.9707 a 43.199032,42.105385 0 0 1 -42.9887,42.1049 43.199032,42.105385 0 0 1 -43.4073,-41.6948 43.199032,42.105385 0 0 1 42.5659,-42.511 43.199032,42.105385 0 0 1 43.8219,41.2808" />
    <path
       style="fill:none;stroke:#000000;stroke-width:2.5"
       id="path51"
       sodipodi:type="arc"
       sodipodi:cx="6281.3579"
       sodipodi:cy="5828.042"
       sodipodi:rx="97.881355"
       sodipodi:ry="91.319473"
       sodipodi:start="0"
       sodipodi:end="6.2637073"
       sodipodi:open="true"
       sodipodi:arc-type="arc"
       d="m 6379.2393,5828.042 a 97.881355,91.319473 0 0 1 -97.4048,91.3184 97.881355,91.319473 0 0 1 -98.3533,-90.4291 97.881355,91.319473 0 0 1 96.4469,-92.199 97.881355,91.319473 0 0 1 99.2926,89.5311" />
    <path
       style="fill:none;stroke:#000000;stroke-width:2.5"
       id="path52"
       sodipodi:type="arc"
       sodipodi:cx="5881.3569"
       sodipodi:cy="6257.5713"
       sodipodi:rx="19.959047"
       sodipodi:ry="22.693163"
       sodipodi:start="0"
       sodipodi:end="6.2637073"
       sodipodi:open="true"
       sodipodi:arc-type="arc"
       d="m 5901.316,6257.5713 a 19.959047,22.693163 0 0 1 -19.8619,22.6929 19.959047,22.693163 0 0 1 -20.0553,-22.4719 19.959047,22.693163 0 0 1 19.6666,-22.9118 19.959047,22.693163 0 0 1 20.2468,22.2488" />
    <path
       style="fill:none;stroke:#000000;stroke-width:2.5"
       id="path53"
       sodipodi:type="arc"
       sodipodi:cx="5860.5776"
       sodipodi:cy="6314.1675"
       sodipodi:rx="1.9138812"
       sodipodi:ry="0.5468232"
       sodipodi:start="0"
       sodipodi:end="6.2637073"
       sodipodi:open="true"
       sodipodi:arc-type="arc"
       d="m 5862.4915,6314.1675 a 1.9138812,0.5468232 0 0 1 -1.9045,0.5468 1.9138812,0.5468232 0 0 1 -1.9232,-0.5415 1.9138812,0.5468232 0 0 1 1.8859,-0.5521 1.9138812,0.5468232 0 0 1 1.9415,0.5361" />
    <path
       style="fill:none;stroke:#000000;stroke-width:2.5"
       id="path54"
       sodipodi:type="arc"
       sodipodi:cx="6437.2026"
       sodipodi:cy="6812.8701"
       sodipodi:rx="14.764226"
       sodipodi:ry="16.951519"
       sodipodi:start="0"
       sodipodi:end="6.2637073"
       sodipodi:open="true"
       sodipodi:arc-type="arc"
       d="m 6451.9669,6812.8701 a 14.764226,16.951519 0 0 1 -14.6924,16.9513 14.764226,16.951519 0 0 1 -14.8354,-16.7862 14.764226,16.951519 0 0 1 14.5479,-17.1148 14.764226,16.951519 0 0 1 14.9771,16.6196" />
    <rect
       style="fill:none;stroke:#000000;stroke-width:2.5"
       id="rect54"
       width="218.72928"
       height="266.84973"
       x="5593.4546"
       y="9081.0928" />
    <rect
       style="fill:none;stroke:#000000;stroke-width:2.5"
       id="rect55"
       width="302.94006"
       height="203.41823"
       x="5205.21"
       y="8867.832" />
    <rect
       style="fill:none;stroke:#000000;stroke-width:2.5"
       id="rect56"
       width="362.54379"
       height="222.55704"
       x="3642.3894"
       y="2357.3547" />
    <rect
       style="fill:none;stroke:#000000;stroke-width:2.5"
       id="rect57"
       width="219.27611"
       height="218.72928"
       x="3885.7256"
       y="3083.5359" />
    <ellipse
       style="fill:none;stroke:#000000;stroke-width:2.5"
       id="path57"
       cx="4094.8855"
       cy="3954.8989"
       rx="50.581146"
       ry="34.176449" />
    <rect
       style="fill:none;stroke:#000000;stroke-width:2.5"
       id="rect58"
       width="285.98853"
       height="386.604"
       x="3698.1653"
       y="5065.2231" />
    <ellipse
       style="fill:none;stroke:#000000;stroke-width:2.5"
       id="path58"
       cx="3651.1384"
       cy="6125.2397"
       rx="66.165604"
       ry="80.656418" />
    <ellipse
       style="fill:none;stroke:#1200d8;stroke-width:2.5;stroke-opacity:1"
       id="path59"
       cx="3847.1746"
       cy="6823.5332"
       rx="16.678108"
       ry="22.146339" />
    <ellipse
       style="fill:none;stroke:#1200d8;stroke-width:2.5;stroke-opacity:1"
       id="path60"
       cx="3824.7549"
       cy="7038.4346"
       rx="14.490814"
       ry="16.131285" />
    <ellipse
       style="fill:none;stroke:#1200d8;stroke-width:2.5;stroke-opacity:1"
       id="path61"
       cx="3805.3425"
       cy="8588.4053"
       rx="20.779282"
       ry="20.232458" />
    <ellipse
       style="fill:none;stroke:#000000;stroke-width:2.5"
       id="path62"
       cx="3736.7163"
       cy="9590.1846"
       rx="71.907249"
       ry="61.244198" />
    <rect
       style="fill:none;stroke:#000000;stroke-width:2.5"
       id="rect62"
       width="381.13577"
       height="203.96506"
       x="3095.5662"
       y="4308.9668" />
    <ellipse
       style="fill:none;stroke:#000000;stroke-width:2.5"
       id="path63"
       cx="3444.7129"
       cy="5354.4927"
       rx="12.303522"
       ry="18.045166" />
    <rect
       style="fill:none;stroke:#000000;stroke-width:2.5"
       id="rect63"
       width="161.31284"
       height="193.57541"
       x="3378.2737"
       y="6152.3076" />
    <ellipse
       style="fill:none;stroke:#1200d8;stroke-width:2.5;stroke-opacity:1"
       id="path64"
       cx="3392.2178"
       cy="6958.3252"
       rx="14.490814"
       ry="13.67058" />
    <rect
       style="fill:none;stroke:#000000;stroke-width:2.5"
       id="rect64"
       width="276.14572"
       height="287.08218"
       x="3193.4475"
       y="8959.6982" />
    <ellipse
       style="fill:none;stroke:#000000;stroke-width:2.5"
       id="path65"
       cx="2839.6528"
       cy="7959.0117"
       rx="21.872929"
       ry="17.498343" />
    <ellipse
       style="fill:none;stroke:#000000;stroke-width:2.5"
       id="path66"
       cx="2390.7109"
       cy="7237.752"
       rx="18.045166"
       ry="21.326105" />
    <ellipse
       style="fill:none;stroke:#000000;stroke-width:2.5"
       id="path67"
       cx="2412.8574"
       cy="2826.2556"
       rx="12.850345"
       ry="18.318577" />
    <rect
       style="fill:none;stroke:#000000;stroke-width:2.5"
       id="rect67"
       width="296.37817"
       height="287.629"
       x="2349.6992"
       y="2114.5652" />
    <ellipse
       style="fill:none;stroke:#000000;stroke-width:2.5"
       id="path68"
       cx="1797.1344"
       cy="2064.531"
       rx="29.801865"
       ry="33.082802" />
    <ellipse
       style="fill:none;stroke:#000000;stroke-width:2.5"
       id="path69"
       cx="2198.7761"
       cy="4313.0679"
       rx="105.53687"
       ry="91.046059" />
    <ellipse
       style="fill:none;stroke:#000000;stroke-width:2.5"
       id="path70"
       cx="1978.4064"
       cy="5030.2266"
       rx="28.434807"
       ry="28.981628" />
    <ellipse
       style="fill:none;stroke:#1200d8;stroke-width:2.5;stroke-opacity:1"
       id="path71"
       cx="2172.802"
       cy="7649.2363"
       rx="24.880455"
       ry="18.8654" />
    <rect
       style="fill:none;stroke:#000000;stroke-width:2.5"
       id="rect71"
       width="288.72266"
       height="205.0587"
       x="1769.5199"
       y="7476.7134" />
    <rect
       style="fill:none;stroke:#000000;stroke-width:2.5"
       id="rect72"
       width="318.2511"
       height="269.03702"
       x="690.09088"
       y="2202.6038" />
    <ellipse
       style="fill:none;stroke:#000000;stroke-width:2.5"
       id="path72"
       cx="917.56934"
       cy="2841.5667"
       rx="44.292679"
       ry="37.45739" />
    <ellipse
       style="fill:none;stroke:#000000;stroke-width:2.5"
       id="path73"
       cx="1097.2007"
       cy="3227.8972"
       rx="25.974102"
       ry="25.153868" />
    <ellipse
       style="fill:none;stroke:#000000;stroke-width:2.5"
       id="path74"
       cx="1105.95"
       cy="3296.5237"
       rx="27.067749"
       ry="25.974102" />
    <ellipse
       style="fill:none;stroke:#000000;stroke-width:2.5"
       id="path75"
       cx="1177.037"
       cy="3630.906"
       rx="24.333632"
       ry="29.528452" />
    <ellipse
       style="fill:none;stroke:#000000;stroke-width:2.5"
       id="path76"
       cx="1517.9812"
       cy="5783.4756"
       rx="16.404696"
       ry="15.584461" />
    <ellipse
       style="fill:none;stroke:#000000;stroke-width:2.5"
       id="path77"
       cx="2959.0996"
       cy="2766.1804"
       rx="56.603035"
       ry="43.875725" />
    <ellipse
       style="fill:none;stroke:#000000;stroke-width:2.5"
       id="path78"
       cx="2947.377"
       cy="6163.0322"
       rx="18.086178"
       ry="15.071815" />
    <ellipse
       style="fill:none;stroke:#000000;stroke-width:2.5"
       id="path79"
       cx="5577.2729"
       cy="4817.8169"
       rx="65.560371"
       ry="60.338749" />
    <ellipse
       style="fill:none;stroke:#000000;stroke-width:2.5"
       id="path80"
       cx="5679.9648"
       cy="5197.835"
       rx="40.612621"
       ry="37.71172" />
    <ellipse
       style="fill:none;stroke:#000000;stroke-width:2.5"
       id="path81"
       cx="7683.9346"
       cy="3572.0181"
       rx="82.469246"
       ry="88.516991" />
    <ellipse
       style="fill:none;stroke:#000000;stroke-width:2.5"
       id="path82"
       cx="8081.9858"
       cy="4766.7222"
       rx="79.170471"
       ry="56.079086" />
    <rect
       style="fill:none;stroke:#000000;stroke-width:2.5"
       id="rect82"
       width="826.8916"
       height="451.93146"
       x="7056.0684"
       y="3976.1172" />
    <rect
       style="fill:none;stroke:#000000;stroke-width:2.5"
       id="rect83"
       width="459.6286"
       height="385.95605"
       x="4853.5898"
       y="4101.4702" />
    <rect
       style="fill:none;stroke:#000000;stroke-width:2.5"
       id="rect84"
       width="505.81137"
       height="381.55771"
       x="4197.1348"
       y="7650.9468" />
    <rect
       style="fill:none;stroke:#000000;stroke-width:2.5"
       id="rect85"
       width="302.38724"
       height="401.35031"
       x="5114.1929"
       y="9504.8555" />
    <rect
       style="fill:none;stroke:#000000;stroke-width:2.5"
       id="rect86"
       width="769.71295"
       height="437.63678"
       x="2647.8125"
       y="7133.04" />
    <rect
       style="fill:none;stroke:#000000;stroke-width:2.5"
       id="rect87"
       width="504.71176"
       height="471.72409"
       x="2387.2097"
       y="3078.8518" />
    <rect
       style="fill:none;stroke:#000000;stroke-width:2.5"
       id="rect88"
       width="588.28064"
       height="531.10193"
       x="2920.5107"
       y="1864.9045" />
    <ellipse
       style="font-variation-settings:normal;opacity:1;vector-effect:none;fill:none;fill-opacity:1;fill-rule:evenodd;stroke:#000000;stroke-width:2.5;stroke-linecap:butt;stroke-linejoin:miter;stroke-miterlimit:4;stroke-dasharray:none;stroke-dashoffset:0;stroke-opacity:1;-inkscape-stroke:none;stop-color:#000000;stop-opacity:1"
       id="path22"
       cx="2798.3335"
       cy="5142.8379"
       rx="27.63166"
       ry="25.957014" />
    <ellipse
       style="font-variation-settings:normal;opacity:1;vector-effect:none;fill:none;fill-opacity:1;fill-rule:evenodd;stroke:#000000;stroke-width:2.5;stroke-linecap:butt;stroke-linejoin:miter;stroke-miterlimit:4;stroke-dasharray:none;stroke-dashoffset:0;stroke-opacity:1;-inkscape-stroke:none;stop-color:#000000;stop-opacity:1"
       id="path55"
       cx="2900.4868"
       cy="5237.4556"
       rx="39.354183"
       ry="26.794336" />
    <rect
       style="fill:none;stroke:#000000;stroke-width:2.5"
       id="rect59"
       width="195.09627"
       height="233.61313"
       x="2911.3721"
       y="5281.8335" />
  </g>
</svg>
